FFmpeg version SVN-r25716, Copyright (c) 2000-2010 the FFmpeg developers  built on Nov 10 2010 12:23:18 with gcc 4.1.2 20080704 (Red Hat 4.1.2-48)  configuration: --enable-libmp3lame --enable-shared --disable-mmx --arch=x86_64  libavutil     50.33. 0 / 50.33. 0  libavcore      0.12. 1 /  0.12. 1  libavcodec    52.94. 4 / 52.94. 4  libavformat   52.84. 0 / 52.84. 0  libavdevice   52. 2. 2 / 52. 2. 2  libavfilter    1.59. 0 /  1.59. 0  libswscale     0.12. 0 /  0.12. 0Seems stream 0 codec frame rate differs from container frame rate: 1200.00 (1200/1) -> 30.00 (30/1)Input #0, mov,mp4,m4a,3gp,3g2,mj2, from '/RAID10/data/converted_video_files/15806.mov':  Metadata:    major_brand     : qt      minor_version   : 537199360    compatible_brands: qt    Duration: 00:00:05.96, start: 0.000000, bitrate: 6233 kb/s    Stream #0.0(eng): Video: h264, yuv420p, 480x480, 6219 kb/s, PAR 1:1 DAR 1:1, 30 fps, 30 tbr, 600 tbn, 1200 tbc[buffer @ 0x1e3b3fc0] w:480 h:480 pixfmt:yuv420pOutput #0, flv, to '/RAID10/data/converted_video_files/15806.flv':  Metadata:    encoder         : Lavf52.84.0    Stream #0.0(eng): Video: flv, yuv420p, 480x480 [PAR 1:1 DAR 1:1], q=2-31, 600 kb/s, 1k tbn, 24 tbcStream mapping:  Stream #0.0 -> #0.0Press [q] to stop encodingframe=   28 fps=  0 q=11.6 size=     304kB time=1.17 bitrate=2133.8kbits/s dup=0 drop=7    frame=   61 fps= 58 q=9.5 size=     396kB time=2.54 bitrate=1275.0kbits/s dup=0 drop=15    frame=   95 fps= 62 q=11.7 size=     483kB time=3.96 bitrate= 999.2kbits/s dup=0 drop=23    frame=  127 fps= 62 q=12.2 size=     583kB time=5.29 bitrate= 902.9kbits/s dup=0 drop=31    frame=  143 fps= 59 q=12.8 Lsize=     627kB time=5.96 bitrate= 862.0kbits/s dup=0 drop=36    video:625kB audio:0kB global headers:0kB muxing overhead 0.390610%